<svg id="eDFyV6BTP171" xmlns="http://www.w3.org/2000/svg" xmlns:xlink="http://www.w3.org/1999/xlink" viewBox="0 0 24 24" shape-rendering="geometricPrecision" text-rendering="geometricPrecision" project-id="7be3480bbbc142969d068d47542a0f82" export-id="93b472301f974399a59a8ae2d59831c5" cached="false"><path d="M0,0h24v24h-24L0,0Z" fill="none"/><path d="M3,5h2v-2C3.9,3,3,3.9,3,5Zm0,8h2v-2h-2v2Zm4,8h2v-2h-2v2ZM3,9h2v-2h-2v2ZM13,3h-2v2h2v-2Zm6,0v2h2c0-1.1-.9-2-2-2ZM5,21v-2h-2c0,1.1.9,2,2,2ZM3,17h2v-2h-2v2ZM9,3h-2v2h2v-2Zm2,18h2v-2h-2v2Zm8-8h2v-2h-2v2Zm0,8c1.1,0,2-.9,2-2h-2v2ZM19,9h2v-2h-2v2Zm0,8h2v-2h-2v2Zm-4,4h2v-2h-2v2ZM15,5h2v-2h-2v2ZM8,17h8c.55,0,1-.45,1-1v-8c0-.55-.45-1-1-1h-8c-.55,0-1,.45-1,1v8c0,.55.45,1,1,1ZM9,9h6v6h-6v-6Z"/><rect width="6.711004" height="6.928658" rx="0" ry="0" transform="translate(8.662636 8.669891)" stroke-width="0"/></svg>
